<svg width="50" height="50" viewBox="0 0 50 50" fill="none" xmlns="http://www.w3.org/2000/svg">
<path fill-rule="evenodd" clip-rule="evenodd" d="M16.1336 8.83915C15.4573 9.50899 15.4527 10.5949 16.1382 11.2647L26.2745 21.1911L26.4536 21.344C27.1387 21.8536 28.1181 21.8003 28.7401 21.1842C29.077 20.8505 29.249 20.4115 29.249 19.9749C29.249 19.5359 29.077 19.0947 28.7354 18.7609L18.5991 8.8323L18.42 8.67936C17.7349 8.16978 16.7556 8.22304 16.1336 8.83915ZM15.981 38.9132C15.4579 39.5855 15.5135 40.5491 16.1333 41.1632C16.8119 41.833 17.9157 41.8353 18.5989 41.1654L33.8614 26.2142L34.0181 26.039C34.2556 25.734 34.375 25.3679 34.375 25.0002C34.375 24.5636 34.203 24.1247 33.8661 23.7909C33.1875 23.1188 32.0838 23.1165 31.4006 23.7863L16.138 38.7376L15.981 38.9132Z" fill="#303030"/>
</svg>
