<svg width="24" height="25" viewBox="0 0 24 25" fill="none" xmlns="http://www.w3.org/2000/svg">
<g id="Iconly/Broken/Search">
<g id="Search">
<path id="Search_2" d="M21.7555 21.4299L18.3182 18.0692L18.2376 17.9467C18.0878 17.7976 17.883 17.7135 17.6692 17.7135C17.4554 17.7135 17.2505 17.7976 17.1007 17.9467C14.1795 20.6267 9.67815 20.7724 6.58201 18.2871C3.48586 15.8018 2.75567 11.4568 4.87568 8.13356C6.9957 4.81037 11.3081 3.54024 14.9528 5.16553C18.5976 6.79082 20.4438 10.8072 19.267 14.551C19.1823 14.8215 19.2515 15.1156 19.4487 15.3226C19.6459 15.5295 19.9411 15.618 20.223 15.5545C20.505 15.491 20.7309 15.2853 20.8156 15.0148C22.2224 10.572 20.0977 5.79095 15.8161 3.76445C11.5345 1.73796 6.38084 3.07422 3.68905 6.90881C0.99727 10.7434 1.57518 15.9255 5.04893 19.1029C8.52268 22.2803 13.8498 22.4993 17.5841 19.6183L20.6277 22.5939C20.942 22.8999 21.4502 22.8999 21.7645 22.5939C22.0785 22.2836 22.0785 21.784 21.7645 21.4737L21.7555 21.4299Z" fill="#303030"/>
</g>
</g>
</svg>
